<?xml version="1.0" encoding="utf-8"?>
<!-- Generator: Adobe Illustrator 24.1.2, SVG Export Plug-In . SVG Version: 6.00 Build 0)  -->
<svg version="1.1" id="Capa_1" xmlns="http://www.w3.org/2000/svg" xmlns:xlink="http://www.w3.org/1999/xlink" x="0px" y="0px"
	 viewBox="0 0 24 24" style="enable-background:new 0 0 24 24;" xml:space="preserve">
<g>
	<path d="M20.5,19.7c0,0.4-0.4,0.8-0.8,0.8h-0.8v0.8c0,0.4-0.4,0.8-0.8,0.8c-0.4,0-0.8-0.3-0.8-0.8v-0.8h-0.8
		c-0.4,0-0.8-0.3-0.8-0.8s0.4-0.8,0.8-0.8h0.8v-0.8c0-0.4,0.4-0.8,0.8-0.8c0.4,0,0.8,0.3,0.8,0.8v0.8h0.8
		C20.1,18.9,20.5,19.2,20.5,19.7z M20.5,7.5V15c0,0.4-0.4,0.8-0.8,0.8s-0.8-0.3-0.8-0.8V8.3h-1.6v2.3c0,0.4-0.4,0.8-0.8,0.8
		c-0.4,0-0.8-0.3-0.8-0.8V8.3H8.2v2.3c0,0.4-0.4,0.8-0.8,0.8c-0.4,0-0.8-0.3-0.8-0.8V8.3H5.1v12.2h8.3c0.4,0,0.8,0.3,0.8,0.8
		S13.9,22,13.4,22H4.3c-0.4,0-0.8-0.3-0.8-0.8V7.5c0-0.4,0.4-0.8,0.8-0.8h2.4C7,4.1,9.3,2,12,2s5,2.1,5.3,4.7h2.4
		C20.1,6.7,20.5,7,20.5,7.5z M15.7,6.7c-0.3-1.8-1.9-3.1-3.7-3.1S8.6,4.9,8.3,6.7H15.7z"/>
</g>
</svg>
