<?xml version="1.0" encoding="utf-8"?>
<!-- Generator: Adobe Illustrator 24.1.2, SVG Export Plug-In . SVG Version: 6.00 Build 0)  -->
<svg version="1.1" id="Слой_1" xmlns="http://www.w3.org/2000/svg" xmlns:xlink="http://www.w3.org/1999/xlink" x="0px" y="0px" viewBox="0 0 24 24" style="enable-background:new 0 0 24 24;" xml:space="preserve">
<g>
	<path d="M12,7.2c-1.8,0-3.2,1.4-3.2,3.1s1.4,3.1,3.2,3.1s3.2-1.4,3.2-3.1S13.8,7.2,12,7.2L12,7.2z M12,11.9c-0.9,0-1.6-0.7-1.6-1.6
		c0-0.9,0.7-1.6,1.6-1.6s1.6,0.7,1.6,1.6C13.6,11.2,12.9,11.9,12,11.9z M20.5,10.4C20.5,5.8,16.7,2,12,2s-8.5,3.8-8.5,8.4v0v0
		c0,5.7,4.3,10,8.2,11.6c0.2,0.1,0.4,0.1,0.6,0C15.5,20.7,20.5,16.8,20.5,10.4C20.5,10.4,20.5,10.4,20.5,10.4
		C20.5,10.4,20.5,10.4,20.5,10.4L20.5,10.4z M18.9,10.4c0,4.6-3,8.2-6.9,10c-3.9-1.8-6.9-5.4-6.9-10c0,0,0,0,0,0l0,0
		c0-3.7,3.1-6.8,6.9-6.8C15.8,3.6,18.9,6.6,18.9,10.4C18.9,10.4,18.9,10.4,18.9,10.4C18.9,10.4,18.9,10.4,18.9,10.4z"/>
</g>
</svg>
