<?xml version="1.0" encoding="utf-8"?>
<!-- Generator: Adobe Illustrator 24.1.2, SVG Export Plug-In . SVG Version: 6.00 Build 0)  -->
<svg version="1.1" id="Слой_1" xmlns="http://www.w3.org/2000/svg" xmlns:xlink="http://www.w3.org/1999/xlink" x="0px" y="0px"
	 viewBox="0 0 198.3 41" style="enable-background:new 0 0 198.3 41;" xml:space="preserve">
<style type="text/css">
	.st0{fill:#1D1D1D;}
	.st1{fill:#606060;}
</style>
<g>
	<path class="st0" d="M0,1V0.3h12.3V1H9.2l6.3,15.1L21.4,1h-3.4V0.3h6.8V1h-2.6l-8.7,22.2h-1.3L2.5,1H0z"/>
	<path class="st0" d="M26.7,22.9v-0.7h2.2V1h-2.2V0.3h10.5V1h-2.2v21.2h2.2v0.7H26.7z"/>
	<path class="st0" d="M39.3,1V0.3h12.3V1h-3.1l6.3,15.1L60.6,1h-3.4V0.3H64V1h-2.6l-8.7,22.2h-1.3L41.8,1H39.3z"/>
	<path class="st0" d="M64,23.2v-0.7h2.9l9-22h1.4l9.2,22h2.2v0.7H76.4v-0.7h3.3l-2.3-6h-7.2l-2.4,6h3.8v0.7H64z M73.8,7.6l-3.4,8.3
		h6.6L73.8,7.6z"/>
	<path class="st0" d="M90,23v-0.7h2.8V1.1H90V0.4h12.8c1.9-0.1,3.9,0.4,5.5,1.3c1.3,0.8,2,2.3,2,3.8c0,0.9-0.2,1.8-0.7,2.6
		c-0.6,0.8-1.3,1.4-2.2,1.8c-0.6,0.3-1.2,0.5-1.8,0.7c-0.8,0.2-1.6,0.4-2.4,0.5c0.8,0.1,1.5,0.2,2.3,0.4c0.5,0.1,1,0.3,1.4,0.6
		c0.6,0.4,1.2,0.9,1.6,1.5c0.5,0.6,0.8,1.4,1,2.1c0.2,0.9,0.3,1.9,0.3,2.9c-0.1,0.9,0.1,1.8,0.3,2.7c0.2,0.5,0.7,0.8,1.3,0.7
		c0.4,0,0.7-0.1,1.1-0.3l0.2,0.5c-0.6,0.2-1.2,0.4-1.8,0.6c-0.5,0.1-1,0.2-1.5,0.2c-1.4,0.1-2.8-0.4-3.9-1.3c-1-1-1.5-2.3-1.5-3.7
		l-0.2-2.8c0-1.1-0.3-2.1-1-2.9c-0.7-0.7-1.6-1.1-2.6-1h-2v10.8h2.8V23H90z M98.2,1.1v9.7h2.5c1.1,0.1,2.2-0.3,3-1.1
		c0.7-1.1,1-2.3,0.9-3.6c0.1-1.3-0.2-2.6-0.8-3.7c-0.6-0.8-1.5-1.3-2.5-1.3L98.2,1.1z"/>
	<path class="st0" d="M115.8,11.4c0-3,1.2-5.9,3.3-8c1-1.1,2.3-1.9,3.6-2.5c1.4-0.6,2.9-0.8,4.4-0.8c3.1-0.1,6.2,1.1,8.3,3.4
		c1,1.1,1.8,2.4,2.4,3.8c0.6,1.3,0.9,2.8,0.9,4.2c0,3.1-1.2,6.1-3.4,8.3c-2.1,2.3-5.1,3.5-8.2,3.5c-3,0-6-1.2-8-3.5
		C116.9,17.5,115.8,14.5,115.8,11.4z M122.1,10.1v1c0,3.4,0.1,5.8,0.2,6.9c0.1,1,0.4,1.9,0.9,2.8c0.9,1.3,2.4,2.1,4,1.9
		c0.9,0,1.8-0.2,2.6-0.6c0.7-0.4,1.3-0.9,1.7-1.6c0.4-0.9,0.7-1.9,0.8-3c0.1-1.3,0.2-3.4,0.2-6.3c0.1-2.2,0-4.4-0.3-6.6
		c-0.1-1-0.5-2-1.2-2.8c-1-1-2.3-1.5-3.7-1.4c-2,0-3.3,0.6-4.1,1.9c-0.5,0.8-0.8,1.7-0.9,2.6C122.1,6.7,122.1,8.4,122.1,10.1z"/>
	<path class="st0" d="M141,11.4c0-3,1.2-5.9,3.3-8c1-1.1,2.3-1.9,3.7-2.5c1.4-0.6,2.9-0.8,4.4-0.8c3.1-0.1,6.2,1.1,8.3,3.4
		c1,1.1,1.8,2.4,2.4,3.8c0.6,1.3,0.9,2.8,0.9,4.2c0,3.1-1.2,6.1-3.4,8.3c-2.1,2.3-5.1,3.5-8.2,3.5c-3,0-5.9-1.2-7.9-3.5
		C142.1,17.5,140.9,14.5,141,11.4z M147.3,10.1v1c0,3.4,0.1,5.8,0.2,6.9c0.1,1,0.4,1.9,0.9,2.8c0.9,1.3,2.4,2.1,4,1.9
		c0.9,0,1.8-0.2,2.6-0.6c0.7-0.4,1.3-0.9,1.7-1.6c0.4-0.9,0.7-1.9,0.8-3c0.1-1.3,0.2-3.4,0.2-6.3c0.1-2.2,0-4.4-0.3-6.6
		c-0.1-1-0.5-2-1.1-2.8c-1-1-2.3-1.5-3.7-1.4c-2,0-3.3,0.6-4.1,1.9c-0.5,0.8-0.8,1.7-0.9,2.6C147.3,6.7,147.3,8.4,147.3,10.1
		L147.3,10.1z"/>
	<path class="st0" d="M166.2,23.2v-0.7h3.1V1.3h-3.1V0.7h10.3l4.6,13.4l4.6-13.4h9.9v0.6h-3.1v21.2h3.1v0.7H183v-0.7h3.1V1.3
		l-7.5,21.9h-0.9L170,1.4v21.1h3.1v0.7H166.2z"/>
</g>
<g>
	<path class="st1" d="M2.7,34.2v-0.4H4v0.5H3.9L2.7,34.2z M4,39.6v0.5H2.7v-0.4l1.2-0.1L4,39.6z M3.6,36.8c0-1,0-2,0-2.9h0.9
		c0,1,0,2,0,2.9v0.3c0,1.1,0,2.1,0,3H3.5c0-1,0-2,0-2.9L3.6,36.8z M4,36.7h0.9c1.1,0,1.6-0.4,1.6-1.2S6,34.3,5.1,34.3H4v-0.4h1.4
		c1.3,0,2,0.6,2,1.5c0,0.7-0.5,1.4-1.7,1.5v-0.1c1.5,0.1,2.1,0.8,2.1,1.6c0,0.8-0.7,1.7-2.5,1.7H4v-0.4h1c1.2,0,1.8-0.5,1.8-1.3
		c0-0.8-0.5-1.3-1.8-1.3H4V36.7z"/>
	<path class="st1" d="M8.7,33.9h2.6v0.4l-1.2,0.1H10l-1.2-0.1L8.7,33.9z M8.7,39.8l1.2-0.1h0.2l1.2,0.1v0.4H8.7V39.8z M9.6,37.2
		v-0.5c0-1,0-2,0-2.9h0.9c0,1,0,2,0,2.9v3.4H9.6C9.6,39.2,9.6,38.2,9.6,37.2L9.6,37.2z M9.9,39.2l4.2-5.1v0.7l-4.2,5.1V39.2z
		 M12.7,33.8h2.6v0.4l-1.2,0.1h-0.2l-1.2-0.1V33.8z M12.7,39.7l1.2-0.1h0.2l1.2,0.1v0.4h-2.6V39.7z M13.6,37v-3.2h0.9c0,1,0,2,0,2.9
		v0.5c0,1,0,2,0,2.9h-0.9C13.6,39.2,13.6,38.2,13.6,37L13.6,37z"/>
	<path class="st1" d="M16.6,34.2v-0.4H18v0.5h-0.1L16.6,34.2z M18,39.6v0.5h-1.3v-0.4L18,39.6L18,39.6z M17.5,36.8c0-1,0-2,0-2.9
		h0.9c0,1,0,2,0,2.9v0.3c0,1.1,0,2.1,0,3h-0.9c0-1,0-2,0-2.9V36.8z M18,36.7h0.9c1.1,0,1.6-0.4,1.6-1.2s-0.5-1.2-1.5-1.2H18v-0.4
		h1.4c1.3,0,2,0.6,2,1.5c0,0.7-0.5,1.4-1.7,1.5v-0.1c1.5,0.1,2.1,0.8,2.1,1.6c0,0.8-0.7,1.7-2.5,1.7H18v-0.4h1
		c1.2,0,1.8-0.5,1.8-1.3c0-0.8-0.6-1.3-1.9-1.3h-1L18,36.7z"/>
	<path class="st1" d="M22.3,39.7l0.9-0.1h0.2l1,0.1v0.4h-2.1V39.7z M25.1,33.9h0.6l2.1,6.3h-0.9l-1.9-5.6h0.2l-1.9,5.6h-0.4
		L25.1,33.9z M24,37.7h2.6l0.1,0.4h-2.8L24,37.7z M25.8,39.8l1.2-0.1h0.2l1.2,0.1v0.4h-2.5V39.8z"/>
	<path class="st1" d="M29.2,34.2v-0.4h1.3v0.5h-0.1L29.2,34.2z M30.6,39.6l1.2,0.1v0.4h-2.6v-0.4l1.2-0.1L30.6,39.6z M30.1,36.8
		c0-1,0-2,0-2.9H31c0,1,0,2,0,2.9v0.6c0,1,0,1.8,0,2.8h-0.9c0-1,0-2,0-2.9V36.8z M31.5,37.6h-0.9v-0.4h1.1c1.1,0,1.6-0.6,1.6-1.5
		c0-0.9-0.5-1.4-1.6-1.4h-1v-0.4h1.2c1.5,0,2.3,0.8,2.3,1.9S33.4,37.6,31.5,37.6L31.5,37.6z"/>
	<path class="st1" d="M34.9,33.9h2.4v0.4l-1.2,0.1h-0.2l-1-0.1L34.9,33.9z M35.3,33.9h0.9l1.8,4.2l-0.4,0.9L35.3,33.9z M36.3,39.2
		c0.3,0,0.5,0.1,0.9,0.6L36.8,40l0-0.1c0.5-0.5,0.8-1.1,1-1.8l1.7-4.2H40l-2.3,5.3c-0.3,0.6-0.6,1.1-1.3,1.1c-0.4,0-0.7-0.2-0.7-0.7
		C35.9,39.3,36.1,39.2,36.3,39.2L36.3,39.2z M38.5,33.9h2.1v0.4l-1,0.1h-0.2l-1-0.1L38.5,33.9z"/>
	<path class="st1" d="M41.5,33.9h1.2v0.5h-0.1l-1.1-0.1V33.9z M41.5,39.8l1-0.1h0.2l0.9,0.1v0.4h-2.1V39.8z M42.3,33.9h0.4l0.1,2.8
		v3.5h-0.5L42.3,33.9z M42.3,33.9h0.8l2.3,5.6h-0.3l2.2-5.6h0.5l-2.4,6.3H45L42.3,33.9z M46.6,39.8l1.1-0.1h0.2l1.2,0.1v0.4h-2.5
		L46.6,39.8z M47.4,37.2v-3.4h0.8c0,1,0,2,0,2.9v0.5c0,1,0,2,0,2.9h-0.9C47.4,39.2,47.4,38.2,47.4,37.2L47.4,37.2z M47.8,33.9h1.3
		v0.4l-1.2,0.1h-0.1L47.8,33.9z"/>
	<path class="st1" d="M50.8,36.2c0-0.4,0.3-0.7,0.6-0.7c0,0,0,0,0,0c0.4,0,0.7,0.3,0.7,0.6c0,0.4-0.3,0.7-0.6,0.7
		C51.1,36.9,50.8,36.6,50.8,36.2C50.8,36.2,50.8,36.2,50.8,36.2z M50.8,39.6c0-0.4,0.3-0.7,0.6-0.7c0,0,0,0,0,0
		c0.4,0,0.7,0.3,0.7,0.6c0,0.4-0.3,0.7-0.6,0.7C51.1,40.3,50.8,40,50.8,39.6C50.8,39.6,50.8,39.6,50.8,39.6z"/>
	<path class="st1" d="M56.3,34.2v-0.4h1.3v0.5h-0.1L56.3,34.2z M57.6,39.6v0.5h-1.3v-0.4L57.6,39.6L57.6,39.6z M57.2,36.8
		c0-1,0-2,0-2.9h0.9c0,1,0,2,0,2.9v0.3c0,1.1,0,2.1,0,3h-0.9c0-1,0-2,0-2.9V36.8z M57.6,36.7h0.9c1.1,0,1.6-0.4,1.6-1.2
		s-0.5-1.2-1.5-1.2h-1.1v-0.4H59c1.3,0,2,0.6,2,1.5c0,0.7-0.5,1.4-1.7,1.5v-0.1c1.5,0.1,2.1,0.8,2.1,1.6c0,0.8-0.7,1.7-2.5,1.7h-1.2
		v-0.4h1c1.2,0,1.8-0.5,1.8-1.3c0-0.8-0.6-1.3-1.9-1.3h-1L57.6,36.7z"/>
	<path class="st1" d="M67.5,39.2v0.5L67,39.8l0.2-1.4h0.6v1.4c-0.6,0.3-1.2,0.5-1.9,0.4c-1.7,0.1-3.1-1.3-3.2-3c0-0.1,0-0.2,0-0.3
		c-0.1-1.7,1.2-3.2,2.9-3.3c0,0,0.1,0,0.1,0c0.6,0,1.2,0.1,1.8,0.5v1.4H67l-0.2-1.4l0.6,0.1v0.6c-0.4-0.4-0.9-0.6-1.5-0.6
		c-1.3,0-2.3,1-2.3,2.8s1,2.8,2.3,2.8C66.5,39.8,67.1,39.6,67.5,39.2z"/>
	<path class="st1" d="M69,34.2v-0.4h1.3v0.5h-0.1L69,34.2z M70.3,39.6v0.5H69v-0.4L70.3,39.6L70.3,39.6z M69.9,36.8c0-1,0-2,0-2.9
		h0.9c0,1,0,2,0,2.9v0.4c0,1.1,0,2,0,3h-0.9c0-1,0-2,0-2.9V36.8z M70.1,32.7c0-0.3,0.2-0.5,0.5-0.5c0,0,0,0,0,0
		c0.3-0.1,0.6,0.1,0.6,0.4c0.1,0.3-0.1,0.6-0.4,0.6c-0.1,0-0.2,0-0.3,0C70.3,33.1,70.1,32.9,70.1,32.7z M72.9,33.9l0.4,0.5h-3v-0.5
		h3.3l0.1,1.7h-0.5L72.9,33.9z M72.4,37.1h-2.1v-0.4h2.1L72.4,37.1z M73.9,38.5l-0.1,1.7h-3.5v-0.5h3.2l-0.4,0.5l0.3-1.7H73.9z
		 M72.1,36.8l0.1-1h0.4V38h-0.4l-0.1-1L72.1,36.8z M72.1,32.7c0-0.3,0.2-0.5,0.5-0.6c0.3,0,0.5,0.2,0.6,0.5c0,0.3-0.2,0.5-0.5,0.6
		c0,0,0,0,0,0C72.4,33.2,72.1,32.9,72.1,32.7L72.1,32.7z"/>
	<path class="st1" d="M77.4,39.7h6.1l-0.1,2.1h-0.5l-0.3-2.1l0.4,0.5h-5.2l0.5-0.5L78,41.8h-0.5L77.4,39.7z M79.8,33.9h0.6
		c-0.1,3.1-1,4.9-2,6l-0.5-0.2C78.9,38.5,79.6,36.8,79.8,33.9z M78.9,33.9H80v0.5h-0.1l-1-0.1L78.9,33.9z M80,33.9H82v0.5H80V33.9z
		 M81.6,37.2v-0.5c0-1,0-2,0-2.9h0.9c0,1,0,2,0,2.9v0.5c0,1,0,2,0,2.9h-0.9C81.6,39.2,81.6,38.2,81.6,37.2z M82,33.9h1.3v0.4
		l-1.2,0.1H82L82,33.9z"/>
	<path class="st1" d="M84.9,39.2c0.3,0,0.6,0.2,0.8,0.4h-0.4c0.3-0.4,0.6-0.9,0.7-1.5c0.3-1.4,0.5-2.9,0.5-4.3H87
		c0,1.5-0.1,3-0.5,4.4c-0.4,1.4-0.9,2-1.5,2c-0.3,0-0.7-0.2-0.7-0.6c0,0,0-0.1,0-0.1C84.4,39.3,84.6,39.2,84.9,39.2z M85.7,33.9h1.1
		v0.5h-0.2l-1-0.1L85.7,33.9z M86.8,33.9h2.2v0.5h-2.2V33.9z M87.6,39.8l1.2-0.1H89l1.2,0.1v0.4h-2.6L87.6,39.8z M88.5,37.2v-0.5
		c0-1,0-2,0-2.9h0.8c0,1,0,2,0,2.9v0.5c0,1,0,2,0,2.9h-0.9C88.5,39.2,88.5,38.2,88.5,37.2L88.5,37.2z M88.9,33.9h1.3v0.4L89,34.4
		h-0.1L88.9,33.9z"/>
	<path class="st1" d="M91.1,39.7l1-0.1l-0.2,0.2l0.5-1.5c0.3-0.9,0.6-1.3,1.4-1.3v0.1C92.5,37,92,36.3,92,35.5c0-1,0.8-1.7,2.3-1.7
		h1.2v0.4h-1.1c-1,0-1.5,0.4-1.5,1.2c-0.1,0.7,0.5,1.3,1.2,1.4c0.1,0,0.2,0,0.3,0h1.2v0.4h-1c-0.7,0-1,0.1-1.2,0.9l-0.5,1.4
		c-0.1,0.4-0.5,0.7-0.9,0.6c-0.2,0-0.5,0-0.7-0.1L91.1,39.7z M94.2,39.7l1.2-0.1h0.2l1.2,0.1v0.4h-2.6L94.2,39.7z M95.1,37.1v-0.2
		c0-1.2,0-2.1,0-3.1H96c0,1,0,2,0,2.9v0.5c0,1,0,2,0,2.9h-0.9C95.1,39.2,95.1,38.2,95.1,37.1z M95.5,33.9h1.3v0.4l-1.2,0.1h-0.1
		L95.5,33.9z"/>
	<path class="st1" d="M100.6,34.2v-0.4h1.3v0.5h-0.1L100.6,34.2z M101.9,39.6v0.5h-1.3v-0.4L101.9,39.6L101.9,39.6z M101.5,36.8
		c0-1,0-2,0-2.9h0.9c0,1,0,2,0,2.9v0.3c0,1.1,0,2.1,0,3h-0.9c0-1,0-2,0-2.9V36.8z M101.9,36.7h0.9c1.1,0,1.6-0.4,1.6-1.2
		s-0.5-1.2-1.5-1.2h-1.1v-0.4h1.4c1.3,0,2,0.6,2,1.5c0,0.7-0.5,1.4-1.7,1.5v-0.1c1.5,0.1,2.1,0.8,2.1,1.6c0,0.8-0.7,1.7-2.5,1.7
		h-1.2v-0.4h1c1.2,0,1.8-0.5,1.8-1.3c0-0.8-0.6-1.3-1.9-1.3h-1L101.9,36.7z"/>
	<path class="st1" d="M106.3,39.7l1-0.1h0.2l1,0.1v0.4h-2.1L106.3,39.7z M109.1,33.9h0.6l2.1,6.3H111l-1.9-5.6h0.2l-1.9,5.6h-0.4
		L109.1,33.9z M108,37.6h2.5l0.2,0.4h-2.8L108,37.6z M109.8,39.7l1.2-0.1h0.2l1.2,0.1v0.4h-2.5V39.7z"/>
	<path class="st1" d="M113.2,34.2v-0.4h2.6v0.4l-1.2,0.1h-0.2L113.2,34.2z M114.6,39.6l1.2,0.1v0.4h-2.6v-0.4l1.2-0.1H114.6z
		 M114.1,36.8c0-1,0-2,0-2.9h0.9c0,1,0,2,0,2.9V37c0,1.1,0,2.1,0,3.1h-0.9c0-1,0-2,0-2.9V36.8z M114.5,37.1v-0.4h3.9v0.4L114.5,37.1
		z M117.2,34.2v-0.4h2.6v0.4l-1.2,0.1h-0.2L117.2,34.2z M118.5,39.6l1.2,0.1v0.4h-2.6v-0.3l1.2-0.1L118.5,39.6z M118,36.7
		c0-1,0-2,0-2.9h0.9c0,1,0,2,0,2.9v0.5c0,1,0,2,0,2.9H118c0-1,0-2,0-3.1V36.7z"/>
	<path class="st1" d="M121.1,34.2v-0.4h2.6v0.4l-1.2,0.1h-0.2L121.1,34.2z M122.5,39.6l1.2,0.1v0.4h-2.6v-0.4l1.2-0.1H122.5z
		 M122,36.8c0-1,0-2,0-2.9h0.9c0,1,0,2,0,2.9V37c0,1.1,0,2.1,0,3.1H122c0-1,0-2,0-2.9V36.8z M122.4,37.1v-0.4h3.9v0.4L122.4,37.1z
		 M125,34.2v-0.4h2.6v0.4l-1.2,0.1h-0.2L125,34.2z M126.4,39.6l1.2,0.1v0.4H125v-0.3l1.2-0.1L126.4,39.6z M125.9,36.7c0-1,0-2,0-2.9
		h0.9c0,1,0,2,0,2.9v0.5c0,1,0,2,0,2.9h-0.9c0-1,0-2,0-3.1L125.9,36.7z"/>
	<path class="st1" d="M134.4,37c0.1,1.7-1.1,3.1-2.7,3.3c0,0-0.1,0-0.1,0c-1.6,0-2.9-1.4-2.9-3c0-0.1,0-0.2,0-0.2
		c-0.1-1.7,1.1-3.1,2.8-3.3c0,0,0.1,0,0.1,0c1.6,0.1,2.9,1.4,2.8,3C134.4,36.9,134.4,36.9,134.4,37z M131.6,39.8
		c1.3,0,1.9-1.4,1.9-2.8c0-1.4-0.5-2.8-1.9-2.8s-1.9,1.4-1.9,2.8S130.2,39.8,131.6,39.8z"/>
	<path class="st1" d="M135.5,33.9h2.6v0.4l-1.2,0.1h-0.2l-1.2-0.1V33.9z M135.5,39.8l1.2-0.1h0.2l1.2,0.1v0.4h-2.6V39.8z
		 M136.4,37.2v-0.5c0-1,0-2,0-2.9h0.9c0,1,0,2,0,2.9v3.4h-0.9C136.4,39.2,136.4,38.2,136.4,37.2L136.4,37.2z M136.7,39.2l4.2-5.1
		v0.7l-4.2,5.1V39.2z M137.2,32c0.1-0.2,0.2-0.3,0.4-0.3c0.2,0,0.4,0.2,0.4,0.6c0,0.3,0,0.5-0.1,0.8l-0.1-0.5c0.1,0.3,0.6,0.4,1,0.4
		s0.8-0.1,1-0.4l-0.1,0.5c-0.1-0.3-0.1-0.5-0.1-0.8c0-0.4,0.2-0.6,0.4-0.6c0.2,0,0.3,0.1,0.4,0.3c-0.2,0.9-1,1.5-1.9,1.3
		C137.9,33.2,137.4,32.7,137.2,32L137.2,32z M139.5,33.8h2.6v0.4l-1.2,0.1h-0.2l-1.2-0.1L139.5,33.8z M139.5,39.7l1.2-0.1h0.2
		l1.2,0.1v0.4h-2.6L139.5,39.7z M140.4,37v-3.2h0.9c0,1,0,2,0,2.9v0.5c0,1,0,2,0,2.9h-0.9C140.4,39.2,140.4,38.2,140.4,37L140.4,37z
		"/>
	<path class="st1" d="M146,33.9h2.6v0.4l-1.2,0.1h-0.2l-1.2-0.1L146,33.9z M146,39.8l1.2-0.1h0.2l1.2,0.1v0.4H146L146,39.8z
		 M146.9,37.2v-0.5c0-1,0-2,0-2.9h0.9c0,1,0,2,0,3v0.3c0,1.1,0,2,0,2.9h-0.9C146.9,39.2,146.9,38.2,146.9,37.2L146.9,37.2z
		 M149.3,38c-0.2-0.5-0.5-0.7-1.2-0.7h-0.8v-0.4h0.7c0.7,0,0.9-0.1,1.4-1.3c0.6-1.5,1-1.8,1.5-1.8c0.3,0,0.5,0.2,0.5,0.5
		c0,0.2-0.2,0.5-0.6,0.5c-0.3,0-0.5,0-0.8-0.1l0.7-0.4c-0.4,0.5-0.7,1-0.9,1.6c-0.5,1.1-0.8,1.3-1.5,1.4l-0.1-0.3
		c1.1,0.1,1.7,0.4,2,1.2l0.6,1.7l-0.2-0.2l1.1,0.1v0.4c-0.3,0.1-0.6,0.1-0.8,0.1c-0.6,0-0.9-0.1-1-0.6L149.3,38z"/>
	<path class="st1" d="M158.1,37c0.1,1.7-1.1,3.1-2.7,3.3c0,0-0.1,0-0.1,0c-1.6,0-2.9-1.4-2.9-3c0-0.1,0-0.2,0-0.2
		c-0.1-1.7,1.1-3.1,2.8-3.3c0,0,0.1,0,0.1,0c1.6,0,2.9,1.4,2.9,3C158.1,36.8,158.1,36.9,158.1,37z M155.2,39.8
		c1.3,0,1.9-1.4,1.9-2.8c0-1.4-0.5-2.8-1.9-2.8s-1.9,1.4-1.9,2.8S153.9,39.8,155.2,39.8z"/>
	<path class="st1" d="M159,33.9h1.2v0.5h-0.1l-1.1-0.1V33.9z M159,39.8l1-0.1h0.2l0.9,0.1v0.4H159V39.8z M159.9,33.9h0.4l0.1,2.8
		v3.5h-0.5L159.9,33.9z M159.9,33.9h0.8l2.3,5.6h-0.3l2.2-5.6h0.5l-2.5,6.3h-0.5L159.9,33.9z M164.1,39.8l1.1-0.1h0.2l1.2,0.1v0.4
		h-2.5L164.1,39.8z M165,37.2v-3.4h0.9c0,1,0,2,0,2.9v0.5c0,1,0,2,0,2.9h-0.9C165,39.2,165,38.2,165,37.2L165,37.2z M165.4,33.9h1.3
		v0.4l-1.2,0.1h-0.1V33.9z"/>
	<path class="st1" d="M168,34.2v-0.4h2.6v0.4l-1.2,0.1h-0.2L168,34.2z M169.4,39.6l1.2,0.1v0.4H168v-0.4l1.2-0.1H169.4z M168.9,36.8
		c0-1,0-2,0-2.9h0.9c0,1,0,2,0,2.9V37c0,1.1,0,2.1,0,3.1h-0.9c0-1,0-2,0-2.9L168.9,36.8z M169.3,37.1v-0.4h3.9v0.4L169.3,37.1z
		 M171.9,34.2v-0.4h2.6v0.4l-1.2,0.1h-0.2L171.9,34.2z M173.3,39.6l1.2,0.1v0.4h-2.6v-0.3l1.2-0.1L173.3,39.6z M172.8,36.7
		c0-1,0-2,0-2.9h0.9c0,1,0,2,0,2.9v0.5c0,1,0,2,0,2.9h-0.9c0-1,0-2,0-3.1L172.8,36.7z"/>
	<path class="st1" d="M175.5,39.7l0.9-0.1h0.2l1,0.1v0.4h-2.1L175.5,39.7z M178.2,33.9h0.6l2.1,6.3h-0.9l-1.9-5.6h0.2l-1.9,5.6h-0.4
		L178.2,33.9z M177.1,37.7h2.5l0.2,0.4H177L177.1,37.7z M179,39.8l1.2-0.1h0.2l1.2,0.1v0.4H179L179,39.8z"/>
	<path class="st1" d="M182.1,34.3l0.4-0.5l-0.3,1.7h-0.5l0.1-1.7h5.1l0.1,1.7h-0.5l-0.3-1.7l0.4,0.5H182.1z M184.4,39.6l1.3,0.1v0.4
		h-2.8v-0.4l1.3-0.1L184.4,39.6z M183.9,36.8c0-1,0-2,0-2.9h0.9c0,1,0,2,0,2.9v0.5c0,1,0,2,0,2.9h-0.9c0-1,0-2,0-2.9V36.8z"/>
	<path class="st1" d="M188,33.9h2.7v0.4l-1.2,0.1h-0.3l-1.2-0.1V33.9z M188,39.8l1.2-0.1h0.1v0.5H188L188,39.8z M188.9,37.2v-0.5
		c0-1,0-2,0-2.9h0.9c0,1,0,2,0,2.9v0.5c0,1,0,2,0,2.9h-0.9C188.9,39.2,188.9,38.2,188.9,37.2L188.9,37.2z M189.3,39.7h1
		c1.1,0,1.6-0.4,1.6-1.3s-0.4-1.5-1.5-1.5c-0.4,0-0.8,0-1.1,0.1v-0.5c0.4-0.1,0.9-0.1,1.3-0.1c1.4,0,2.2,0.7,2.2,1.8
		c0,1.1-0.7,1.9-2.4,1.9h-1.1L189.3,39.7z M193,33.9h2.6v0.4l-1.2,0.1h-0.2l-1.2-0.1V33.9z M193,39.8l1.2-0.1h0.2l1.2,0.1v0.4H193
		V39.8z M193.9,37.2v-0.5c0-1,0-2,0-2.9h0.9c0,1,0,2,0,2.9v0.5c0,1,0,2,0,2.9h-0.9C193.9,39.2,193.9,38.2,193.9,37.2L193.9,37.2z"/>
</g>
</svg>
