<?xml version="1.0" encoding="utf-8"?>
<!-- Generator: Adobe Illustrator 24.1.2, SVG Export Plug-In . SVG Version: 6.00 Build 0)  -->
<svg version="1.1" id="Слой_1" xmlns="http://www.w3.org/2000/svg" xmlns:xlink="http://www.w3.org/1999/xlink" x="0px" y="0px"
	 viewBox="0 0 400.9 49.3" style="enable-background:new 0 0 400.9 49.3;" xml:space="preserve">
<style type="text/css">
	.st0{fill-rule:evenodd;clip-rule:evenodd;fill:#1D1D1B;}
</style>
<path class="st0" d="M20.9,49.3h17.3c2.6,0,5.3-0.2,7.8-0.8c2-0.5,4-1.3,5.7-2.4c0.6-0.4,1.2-0.9,1.8-1.4H26.4v-9h6.3v-5.5h-6.3
	v-9.9h6.3v-5.4h-6.3v-14h-5.4v14h-8.6v-14H6.9v14H0v5.4h6.9v9.9H0v5.4h6.9v13.7h5.4V35.6h8.6V49.3z M57.7,39.2
	c0.7-1.5,1.3-3,1.8-4.5c0.9-3.2,1.3-6.5,1.3-9.8c0.1-3.9-0.6-7.9-1.9-11.6c-1.2-3.2-3.1-6-5.7-8.2c-2-1.7-4.4-2.9-7-3.4
	c-2.9-0.5-5.8-0.8-8.7-0.7h-5.7v4.7h5.5c2.6,0,6.3,0.1,8.7,1.1c2.8,1.2,5,3.2,6.5,5.9c2.1,3.5,2.6,8.3,2.6,12.3
	c0.1,3.3-0.4,6.6-1.3,9.8c-0.5,1.7-1.3,3.3-2.3,4.7L57.7,39.2z M20.9,30.2h-8.6v-9.9h8.6L20.9,30.2L20.9,30.2z M93.4,26v-4.1h-19
	V5.1h20.2V0.8H69.2v48.5h26.5v-4.2H74.4V26H93.4z M104,43l-1.3,4.3c3.1,1.9,8.2,2.9,11.8,2.9c6.3,0,12.7-2.1,15.4-8.3
	c0.7-1.8,1.1-3.7,1.1-5.6c0-8-5.4-11.4-12.1-14.1c-3.3-1.3-7.7-3.1-9.3-6.4c-0.5-1.1-0.8-2.4-0.8-3.7c0-2,0.8-4,2.3-5.4
	c2.1-1.8,4.8-2.8,7.5-2.6c3.1,0,6.1,0.7,8.9,2.1l1.4-4.1c-3.2-1.5-6.6-2.2-10.1-2.1c-5.3,0-10.8,1.9-13.6,6.7
	c-1.1,1.9-1.7,4-1.7,6.2c0,7.5,6.3,11.3,12.6,13.6c4.9,1.9,9.6,4.4,9.6,10.3c0,6.2-5.2,9-10.8,9C111.1,45.9,107.3,44.9,104,43z
	 M140.8,49.4h5.2V0.8h-5.3L140.8,49.4L140.8,49.4z M194.5,47.4v-23h-15v4h9.9v15.7l-0.3,0.2c-2.3,1.2-6.1,1.4-8.7,1.4
	c-12.5,0-19.5-8.5-19.5-20.6c0-12.4,7.7-20.5,20.3-20.5c3.6-0.1,7.2,0.6,10.5,1.9l1.3-4.1c-3.3-1.5-8-2-11.6-2
	c-15.1,0-26,9.6-26,25.1c0,6.5,1.9,13.5,6.7,18.1c4.9,4.8,11.2,6.4,17.9,6.4C184.9,49.8,189.8,49,194.5,47.4L194.5,47.4z
	 M205.2,49.4h4.8V7.6l9.9,16.8l15.4,24.9h5.5V0.8H236v40.8L211.3,0.8h-6.1L205.2,49.4L205.2,49.4z"/>
<path class="st0" d="M277.9,39.2h18.6v10.1h-30.2V0.9h11.6V39.2z M313.9,37.2l-3.3,12.2h-12L313,0.9h14.7l14.9,48.5H330l-3.6-12.2
	L313.9,37.2z M374.9,23.2c5.1,1.6,8.5,6.4,8.5,11.7c0,4.1-1.8,8-5.1,10.5c-4.8,3.9-12.8,4.4-18.7,4.4c-3.8,0-7.7-0.2-11.5-0.8
	l-0.5-0.1V1.6l0.5-0.1c1.8-0.3,3.6-0.5,5.4-0.6c2.4-0.2,4.8-0.3,7.2-0.4h1.2c4.8,0,9.9,0.2,14.1,2.8c3.7,1.9,5.9,5.7,5.8,9.8
	C381.7,17.8,378.9,21.2,374.9,23.2L374.9,23.2z M387.3,43.2c-0.2-3.6,2.6-6.6,6.2-6.8c0.2,0,0.4,0,0.6,0c4,0,6.6,2.8,6.7,6.8
	c-0.1,3.7-3.3,6.6-7,6.5C390.2,49.5,387.4,46.7,387.3,43.2z M320,11.5c-0.5,2.4-1,4.8-1.7,7.2l-2.6,9.4h8.9l-2.7-9.3
	C321.2,16.3,320.6,13.9,320,11.5L320,11.5z M359.1,19.6h2.9c3.4,0,8-1,8-5.3c0-4-3.6-4.9-6.9-4.9c-1.3,0-2.7,0-4,0.2L359.1,19.6
	L359.1,19.6z M359.1,40.7c1.2,0.1,2.4,0.1,3.5,0.1c4.2,0,8.5-1.5,8.5-6.3s-5-6-9-6h-3.1L359.1,40.7L359.1,40.7z"/>
</svg>
