<?xml version="1.0" encoding="utf-8"?>
<!-- Generator: Adobe Illustrator 24.1.2, SVG Export Plug-In . SVG Version: 6.00 Build 0)  -->
<svg version="1.1" id="Слой_1" xmlns="http://www.w3.org/2000/svg" xmlns:xlink="http://www.w3.org/1999/xlink" x="0px" y="0px"
	 viewBox="0 0 212.6 19.8" style="enable-background:new 0 0 212.6 19.8;" xml:space="preserve">
<style type="text/css">
	.st0{fill:#1D1D1D;}
</style>
<g>
	<path class="st0" d="M201.5,12h4.5l-2-5.5l-0.3-1.1l-0.3,1.1L201.5,12z M202.8,0.6l2.4-0.6l5.8,15.8l1.6,3.5h-4.1l-1.6-4.4h-6.3
		l-1.7,4.4h-3.4L202.8,0.6z"/>
	<polygon class="st0" points="181.7,19.7 179.2,19.1 173.5,3.9 171.7,0.4 176.2,0.4 180.3,12.2 180.8,14.5 181.4,12.2 185.8,0.4 
		189.3,0.4 	"/>
	<path class="st0" d="M154.6,16.9c3,0,5-3,5-7.1s-2-7.1-5-7.1s-5,3-5,7.1S151.6,16.9,154.6,16.9 M163.5,9.7c0,5.7-4,10-9.1,10
		c-5.6,0-8.7-4.2-8.7-9.6c0-5.6,3.9-9.9,9.1-9.9C160.6,0.1,163.5,4.1,163.5,9.7"/>
	<polygon class="st0" points="135,16.9 135.2,19.3 132.9,19.3 123.3,8.6 122.2,6.8 122.2,16.9 122.5,19.3 119,19.3 119,3.3 
		118.6,0.4 121.4,0.4 130.7,11.3 131.8,13.1 131.8,3.3 131.4,0.4 135,0.4 	"/>
	<path class="st0" d="M98.1,12h4.5l-2-5.5l-0.3-1.1L100,6.5L98.1,12z M99.4,0.6l2.4-0.6l5.8,15.8l1.6,3.5h-4.1l-1.6-4.4h-6.3
		l-1.7,4.4h-3.4L99.4,0.6z"/>
	<path class="st0" d="M51.2,9.9c1.8,0,3.4-1.6,3.4-3.7C54.6,4.1,53,3,51.2,3h-1.3v6.9H51.2z M56.1,19.3l-4.7-6.7H50v4.3l0.3,2.4h-4
		v-16l-0.4-2.9h5.9c3.4,0,6.7,1.9,6.7,5.9c0,2.1-1.4,4.5-3.6,5.5l5.9,7.5H56.1z"/>
	<path class="st0" d="M75.6,9.9c1.8,0,3.4-1.6,3.4-3.7S77.4,3,75.6,3h-1.3v6.9H75.6z M80.5,19.3l-4.7-6.7h-1.4v4.3l0.3,2.4h-4v-16
		l-0.4-2.9h5.9c3.4,0,6.7,1.9,6.7,5.9c0,2.1-1.4,4.5-3.6,5.5l5.9,7.5H80.5z"/>
	<polygon class="st0" points="24.5,3.3 24.1,0.4 34.9,0.4 34.9,3.2 28.1,3.2 28.1,8.2 34.1,8.2 33.4,11 28.1,11 28.1,16.5 
		35.3,16.5 34.6,19.3 24.5,19.3 	"/>
	<polygon class="st0" points="4.4,19.3 0.4,19.3 0.4,3.3 0,0.4 4.1,0.4 4.1,9.1 8.6,2.4 9.5,0.4 14.3,0.4 7.7,9.3 14.7,19.3 
		10.2,19.3 4.1,10.1 4.1,16.9 	"/>
</g>
</svg>
