<svg xmlns="http://www.w3.org/2000/svg" viewBox="0 0 400.85 82.62"><defs><style>.cls-1,.cls-2{fill:#1d1d1b;}.cls-1{fill-rule:evenodd;}</style></defs><g id="Слой_2" data-name="Слой 2"><g id="Слой_1-2" data-name="Слой 1"><path class="cls-1" d="M20.92,49.32H38.24a32.8,32.8,0,0,0,7.84-.83,17.93,17.93,0,0,0,5.74-2.41,15.77,15.77,0,0,0,1.82-1.44H26.36v-9h6.28V30.15H26.36V20.26h6.28V14.81H26.36V.86H20.92v14H12.37V.86H6.93v14H0v5.45H6.93v9.89H0v5.44H6.93V49.32h5.44V35.59h8.55V49.32Zm36.8-10.13a28,28,0,0,0,1.77-4.52,34.42,34.42,0,0,0,1.29-9.84,32.93,32.93,0,0,0-1.91-11.6A19.68,19.68,0,0,0,53.17,5a16.35,16.35,0,0,0-7-3.44,40.83,40.83,0,0,0-8.7-.69H31.81V5.52h5.52c2.6,0,6.25.11,8.7,1.06a13.47,13.47,0,0,1,6.49,5.85c2.13,3.52,2.63,8.26,2.63,12.29a31.57,31.57,0,0,1-1.33,9.76,18.44,18.44,0,0,1-2.27,4.71Zm-36.8-9H12.37V20.26h8.55v9.89ZM93.39,26V21.88h-19V5.05H94.56V.81H69.15V49.32H95.64V45.08H74.41V26ZM104,43l-1.33,4.26c3.13,1.93,8.23,2.92,11.84,2.92,6.25,0,12.73-2.13,15.41-8.28A13.75,13.75,0,0,0,131,36.34c0-8-5.36-11.43-12.09-14.06-3.26-1.28-7.68-3.12-9.31-6.43a8.2,8.2,0,0,1-.79-3.67,7.56,7.56,0,0,1,2.28-5.4,10.58,10.58,0,0,1,7.53-2.61,19.32,19.32,0,0,1,8.91,2.08l1.38-4.13A22.48,22.48,0,0,0,118.82,0C113.51,0,108,1.93,105.18,6.71a12.15,12.15,0,0,0-1.65,6.2c0,7.54,6.3,11.26,12.59,13.61,4.95,1.85,9.6,4.35,9.6,10.33,0,6.24-5.2,9-10.83,9A22,22,0,0,1,104,43Zm36.81,6.37H146V.81h-5.26V49.32Zm53.69-2V24.38h-15v4h9.88V44.12l-.31.16c-2.29,1.17-6.12,1.39-8.69,1.39-12.51,0-19.47-8.47-19.47-20.61,0-12.45,7.73-20.52,20.27-20.52a25.58,25.58,0,0,1,10.49,1.92l1.26-4.14c-3.3-1.47-8-2-11.6-2-15.14,0-26,9.62-26,25.06,0,6.45,1.93,13.47,6.67,18.08,4.95,4.81,11.18,6.39,17.93,6.39a43,43,0,0,0,14.55-2.55Zm10.73,2H210V7.58l9.92,16.82,15.4,24.92h5.51V.81H236v40.8L211.28.81h-6.1V49.32Z"/><path class="cls-1" d="M277.85,39.24h18.59V49.33H266.2V.87h11.65V39.24Zm36-2.07-3.33,12.16h-12L313,.87h14.69l14.9,48.46H330l-3.61-12.16Zm61-14a12.12,12.12,0,0,1,8.45,11.74,13.21,13.21,0,0,1-5.06,10.54c-4.75,3.87-12.82,4.41-18.73,4.41A78,78,0,0,1,348,49.11l-.47-.07V1.59l.46-.08a54.11,54.11,0,0,1,5.4-.64q3.58-.3,7.18-.35h1.18c4.83,0,9.88.24,14.14,2.75a10.81,10.81,0,0,1,5.84,9.82c0,4.68-2.83,8.12-6.86,10Zm12.42,20a6.51,6.51,0,0,1,6.79-6.79c4,0,6.65,2.83,6.72,6.79a6.76,6.76,0,0,1-13.51,0ZM320,11.49c-.55,2.41-1.05,4.84-1.71,7.22l-2.58,9.35h8.89l-2.71-9.34c-.7-2.4-1.3-4.81-1.89-7.23Zm39.11,8.14H362c3.44,0,8-1,8-5.28,0-4-3.63-4.94-6.94-4.94a29.11,29.11,0,0,0-4,.21v10Zm0,21.07c1.17.11,2.37.08,3.54.08,4.16,0,8.47-1.48,8.47-6.34s-5-6-9-6h-3.06V40.7Z"/><path class="cls-2" d="M0,63.24v15.6H10.75l.14,3.78h1.57l.14-5.37-1.37,0v-14h-2V77.16H2V63.24Zm23.19,6.62H17.14V64.92h6.42V63.24H15.11v15.6h8.8V77.16H17.14V71.53h6.05V69.86Zm3.31-6.62v15.6h2V71.53h7.55v7.31h2V63.24h-2v6.53H28.54V63.24Zm18.09,15.6h2V65H51.4V63.24H39.85V65h4.74V78.84Zm8.55,0h2V72.59a6.65,6.65,0,0,0,1.62.14A6.52,6.52,0,0,0,61.55,71a4.58,4.58,0,0,0,1.2-3.34,4.31,4.31,0,0,0-1.36-3.27A6.45,6.45,0,0,0,57,63.12a23.62,23.62,0,0,0-3.87.3V78.84Zm2-14a7.83,7.83,0,0,1,1.9-.17c2.2,0,3.68,1,3.68,3.09s-1.48,3.31-3.91,3.31A6.55,6.55,0,0,1,55.16,71V64.88Zm15.22-1.64v15.6h2V71.69H73c2.64,0,3.61,1.41,4.33,3.47a28.45,28.45,0,0,0,1.43,3.68H81c-.67-1.38-1.11-2.82-1.71-4.42-.79-2.11-1.79-3.68-4.38-4l5.9-7.15h-2.4L73,70.16h-.62V63.24ZM91,69.86h-6V64.92h6.42V63.24H82.91v15.6h8.8V77.16H84.94V71.53h6V69.86Zm3.34,9h2V72.59a6.78,6.78,0,0,0,1.63.14A6.52,6.52,0,0,0,102.74,71a4.62,4.62,0,0,0,1.2-3.34,4.31,4.31,0,0,0-1.36-3.27,6.45,6.45,0,0,0-4.38-1.29,23.62,23.62,0,0,0-3.87.3V78.84Zm2-14a8,8,0,0,1,1.9-.17c2.21,0,3.69,1,3.69,3.09s-1.48,3.31-3.92,3.31A6.6,6.6,0,0,1,96.34,71V64.88Zm16.43,9.06,1.66,4.9h2.16l-5.33-15.6h-2.4l-5.33,15.6h2.08l1.62-4.9Zm-5.12-1.58,1.53-4.51c.32-1,.55-1.93.78-2.83H110c.23.9.47,1.83.81,2.85l1.55,4.49Zm24.76,6.48h2l-1-15.6h-2.57l-2.78,7.55c-.69,2-1.25,3.68-1.67,5.25h0c-.41-1.62-.92-3.33-1.57-5.25l-2.66-7.55h-2.57l-1.09,15.6h1.92l.42-6.69c.14-2.36.26-5,.3-6.9h0c.43,1.85,1,3.84,1.78,6.07l2.55,7.43H127l2.75-7.57c.79-2.16,1.42-4.12,2-5.93h0c0,1.92.14,4.57.25,6.74l.37,6.85ZM143.81,63c-4.17,0-7.23,3.24-7.23,8.2,0,4.72,2.87,7.94,7,7.94,4,0,7.25-2.87,7.25-8.22,0-4.66-2.75-7.92-7-7.92Zm-.07,1.64c3.36,0,5,3.25,5,6.37,0,3.55-1.81,6.49-5,6.49s-5-3-5-6.35,1.67-6.51,5-6.51Zm9.71-1.36v15.6h2V64.92h6.28V63.24Zm10.05,15.6h2V72.59a6.83,6.83,0,0,0,1.63.14A6.5,6.5,0,0,0,171.91,71a4.59,4.59,0,0,0,1.21-3.34,4.31,4.31,0,0,0-1.37-3.27,6.43,6.43,0,0,0-4.38-1.29,23.62,23.62,0,0,0-3.87.3V78.84Zm2-14a8,8,0,0,1,1.91-.17c2.19,0,3.68,1,3.68,3.09s-1.49,3.31-3.92,3.31a6.6,6.6,0,0,1-1.67-.16V64.88Zm16.43,9.06,1.67,4.9h2.15l-5.33-15.6H178l-5.33,15.6h2.09l1.62-4.9Zm-5.12-1.58,1.53-4.51c.33-1,.56-1.93.79-2.83h.05c.23.9.46,1.83.8,2.85l1.56,4.49ZM188,63.24v15.6h2V71.53h7.56v7.31h2V63.24h-2v6.53h-7.56V63.24Zm15.13,0v15.6h2.15l4.9-7.77a46.32,46.32,0,0,0,2.89-5.24l.07,0c-.16,2-.19,3.83-.19,6.35v6.64h1.9V63.24h-2l-5.05,8a56.45,56.45,0,0,0-2.88,5.17l-.07,0c.14-2.09.19-4.15.19-6.6V63.24Zm18.21,15.6h2V65h4.78V63.24H216.62V65h4.75V78.84Zm14.73-4.9,1.67,4.9h2.16l-5.33-15.6h-2.41l-5.33,15.6H229l1.62-4.9ZM231,72.36l1.52-4.51c.33-1,.56-1.93.79-2.83h0c.23.9.46,1.83.8,2.85l1.56,4.49Zm16.14-9.12v15.6h2.15l4.89-7.77a46.44,46.44,0,0,0,2.9-5.24l.07,0c-.16,2-.19,3.83-.19,6.35v6.64h1.9V63.24h-2l-5,8a56.45,56.45,0,0,0-2.88,5.17l-.07,0c.14-2.09.19-4.15.19-6.6V63.24Zm30.64,13.5a8,8,0,0,1-3.31.65c-3.77,0-6-2.43-6-6.28,0-4.1,2.43-6.44,6.09-6.44a7.08,7.08,0,0,1,3.12.65l.52-1.64a8.46,8.46,0,0,0-3.71-.7c-4.84,0-8.15,3.29-8.15,8.2,0,5.14,3.28,7.92,7.69,7.92a9.92,9.92,0,0,0,4.12-.74l-.4-1.62Zm11.1-2.8,1.67,4.9h2.15l-5.32-15.6H285l-5.33,15.6h2.08l1.63-4.9Zm-5.12-1.58,1.53-4.51c.33-1,.56-1.93.79-2.83h0c.24.9.47,1.83.82,2.85l1.55,4.49ZM295,63.24v15.6h2V71.53h7.56v7.31h2V63.24h-2v6.53H297V63.24Zm18.09,15.6h2V65h4.78V63.24H308.31V65h4.75V78.84Zm16.6-9h-6V64.92H330V63.24h-8.45v15.6h8.8V77.16h-6.77V71.53h6V69.86Zm14.23,9-4.86-8,4.74-7.59h-2.33l-2.11,3.66c-.58,1-1,1.71-1.42,2.64h-.07c-.41-.84-.85-1.62-1.43-2.64l-2.06-3.66H332L336.6,71l-4.78,7.89h2.32L336,75.42c.79-1.37,1.26-2.2,1.69-3.11h.05c.49.91,1,1.77,1.79,3.09l2,3.44Zm2.32-15.6v15.6h2V71.53h7.56v7.31h2V63.24h-2v6.53h-7.56V63.24Zm15.13,0v15.6h2.15l4.89-7.77a44.8,44.8,0,0,0,2.89-5.24l.07,0c-.16,2-.18,3.83-.18,6.35v6.64h1.89V63.24h-2l-5.05,8a53.93,53.93,0,0,0-2.87,5.17l-.07,0c.14-2.09.18-4.15.18-6.6V63.24Zm15.24,0v15.6h2V71.69h.65c2.64,0,3.62,1.41,4.33,3.47A27.09,27.09,0,0,0,385,78.84h2.16c-.68-1.38-1.12-2.82-1.72-4.42-.79-2.11-1.79-3.68-4.38-4L387,63.24h-2.41l-5.35,6.92h-.63V63.24Zm12.55,0v15.6h2.16l4.89-7.77a48.07,48.07,0,0,0,2.9-5.24l.06,0c-.16,2-.19,3.83-.19,6.35v6.64h1.9V63.24h-2l-5,8a56.2,56.2,0,0,0-2.87,5.17l-.07,0c.14-2.09.18-4.15.18-6.6V63.24Z"/></g></g></svg>