<?xml version="1.0" encoding="utf-8"?>
<!-- Generator: Adobe Illustrator 24.1.2, SVG Export Plug-In . SVG Version: 6.00 Build 0)  -->
<svg version="1.1" xmlns="http://www.w3.org/2000/svg" xmlns:xlink="http://www.w3.org/1999/xlink" x="0px" y="0px" viewBox="0 0 24 24" style="enable-background:new 0 0 24 24;" xml:space="preserve">
<g>
	<path d="M21.5,5.8c0-0.4-0.4-0.8-0.8-0.8H5.3c-0.7,0-1,0.8-0.5,1.3l5.7,5.6l-5.7,5.7C4.2,18.2,4.6,19,5.3,19h15.5
		c0.4,0,0.8-0.3,0.8-0.8c0,0,0,0,0,0V5.8z M19.9,16.3l-4.4-4.4l4.4-4.3V16.3z M7.1,6.6h11.7L13,12.3L7.1,6.6z M11.5,13l0.9,0.9
		c0.3,0.3,0.8,0.3,1.1,0l0.9-0.9l4.4,4.4H7.1L11.5,13z"/>
	<path d="M3.3,9.8h2C5.7,9.8,6,9.5,6,9S5.7,8.3,5.3,8.3h-2C2.8,8.3,2.5,8.6,2.5,9S2.8,9.8,3.3,9.8z"/>
	<path d="M5,12c0-0.4-0.3-0.8-0.8-0.8h-2c-0.4,0-0.8,0.3-0.8,0.8s0.3,0.8,0.8,0.8h2C4.7,12.8,5,12.4,5,12z"/>
	<path d="M6,15c0-0.4-0.3-0.8-0.8-0.8h-2c-0.4,0-0.8,0.3-0.8,0.8c0,0.4,0.3,0.8,0.8,0.8h2C5.7,15.7,6,15.4,6,15z"/>
</g>
</svg>
